<?xml version="1.0" encoding="UTF-8"?>
<svg xmlns="http://www.w3.org/2000/svg" width="720" height="420" viewBox="0 0 720 420">
<rect width="100%" height="100%" fill="white"/>
<text x="360" y="25" text-anchor="middle" font-family="sans-serif" font-size="18">Manufactured coarse-tail effectivity</text>
<line x1="80" y1="350" x2="680" y2="350" stroke="black"/>
<line x1="80" y1="45" x2="80" y2="350" stroke="black"/>
<line x1="80" y1="56.730769" x2="680" y2="56.730769" stroke="#777" stroke-dasharray="6,4"/>
<text x="72" y="60.730769" text-anchor="end" font-family="sans-serif" font-size="12">1.0</text>
<polyline fill="none" stroke="#1769aa" stroke-width="3" points="80.000000,298.076394 280.000000,115.763106 480.000000,60.398069 680.000000,56.745089 "/>
<circle cx="80.000000" cy="298.076394" r="5" fill="#1769aa"/>
<text x="80.000000" y="372" text-anchor="middle" font-family="sans-serif" font-size="12">j=0</text>
<text x="80.000000" y="288.076394" text-anchor="middle" font-family="sans-serif" font-size="11">0.794263</text>
<circle cx="280.000000" cy="115.763106" r="5" fill="#1769aa"/>
<text x="280.000000" y="372" text-anchor="middle" font-family="sans-serif" font-size="12">j=1</text>
<text x="280.000000" y="105.763106" text-anchor="middle" font-family="sans-serif" font-size="11">0.949677</text>
<circle cx="480.000000" cy="60.398069" r="5" fill="#1769aa"/>
<text x="480.000000" y="372" text-anchor="middle" font-family="sans-serif" font-size="12">j=2</text>
<text x="480.000000" y="50.398069" text-anchor="middle" font-family="sans-serif" font-size="11">0.996874</text>
<circle cx="680.000000" cy="56.745089" r="5" fill="#1769aa"/>
<text x="680.000000" y="372" text-anchor="middle" font-family="sans-serif" font-size="12">j=3</text>
<text x="680.000000" y="46.745089" text-anchor="middle" font-family="sans-serif" font-size="11">0.999988</text>
<text x="20" y="210" transform="rotate(-90 20 210)" text-anchor="middle" font-family="sans-serif" font-size="14">tail effectivity</text>
</svg>
